{"title":"[MARATHI] Bed Partner XViD MP4 YTubeRip (RRG)","uid":7961302,"size":259891513,"categoryP":"video","categoryS":"movies","magnet":"?xt=urn:btih:12803af7296264f177b82f375b247f1488be73c6&amp;dn=%5BMARATHI%5D+Bed+Partner+XViD+MP4+YTubeRip+%28RRG%29&amp;tr=udp%3A%2F%2Ftracker.openbittorrent.com%3A80&amp;tr=udp%3A%2F%2Fopen.demonii.com%3A1337&amp;tr=udp%3A%2F%2Ftracker.coppersurfer.tk%3A6969&amp;tr=udp%3A%2F%2Fexodus.desync.com%3A6969","seeders":0,"leechers":2,"uploader":"SJonam","files":1,"time":1356592384,"description":" &lt;a href=&quot;http://desibbrg.org/images/66952052392581364616.gif&quot; rel=&quot;nofollow&quot; target=&quot;_NEW&quot;&gt;http://desibbrg.org/images/66952052392581364616.gif&lt;/a&gt;\n &lt;a href=&quot;\nhttp://desibbrg.org/images/91049822196422222225.jpg&quot; rel=&quot;nofollow&quot; target=&quot;_NEW&quot;&gt;\nhttp://desibbrg.org/images/91049822196422222225.jpg&lt;/a&gt;\n &lt;a href=&quot;\nhttp://desibbrg.org/images/05843173479363489739.jpg&quot; rel=&quot;nofollow&quot; target=&quot;_NEW&quot;&gt;\nhttp://desibbrg.org/images/05843173479363489739.jpg&lt;/a&gt;\n &lt;a href=&quot;\nhttp://desibbrg.org/images/23950420231161224453.jpg&quot; rel=&quot;nofollow&quot; target=&quot;_NEW&quot;&gt;\nhttp://desibbrg.org/images/23950420231161224453.jpg&lt;/a&gt;\n &lt;a href=&quot;\nhttp://desibbrg.org/images/26282063786247774462.jpg&quot; rel=&quot;nofollow&quot; target=&quot;_NEW&quot;&gt;\nhttp://desibbrg.org/images/26282063786247774462.jpg&lt;/a&gt;\n\nInfo - \nDirector: Ashok Sawant. \nWriter: Digambar Ladgey. \nStarring: Ashok Sawant, Kishore Ravrane, Sanjay Wagle, Babu Pawar, Anand Patil, Bharat Kale. \n\nPlot - \nThis is a hard hitting play focusing on the harsh realities of life that makes humans cross the lines of morality in the name of greed and lust. Rosie runs a Bar where she is left to deal with drunk and unruly customers all day. Her husband, Dominic is treated like a total waste and doesn't care that Rosie is having an affair with a dangerous criminal. All Dominic cares about is seeing his daughter, Mary pass her school with first rank and become a doctor. But what happens when Mary, a top student, takes to alcohol and starts pulling stunts in the Bar? What cruel odds will the family fight as a series of unfortunate events are set into motion? Watch this intense play presented in a raw form that is both entertaining and thought provoking. \n\nMedia Info - \nGeneral\nComplete name                  : Bed Partner - Marathi Drama.mp4\nFormat                         : MPEG-4\nFormat profile                 : Base Media / Version 2\nCodec ID                       : mp42\nFile size                      : 248 MiB\nDuration                       : 1h 19mn\nOverall bit rate mode          : Variable\nOverall bit rate               : 435 Kbps\nEncoded date                   : UTC 2012-03-25 10:16:27\nTagged date                    : UTC 2012-03-25 10:16:27\ngsst                           : 0\ngstd                           : 4781685\ngssd                           : B7D636EC7HH1355915544473241\n\nVideo\nID                             : 1\nFormat                         : AVC\nFormat/Info                    : Advanced Video Codec\nFormat profile                 : &lt;a class=&quot;__cf_email__&quot; href=&quot;/cdn-cgi/l/email-protection&quot; data-cfemail=&quot;02406371676e6b6c67424e302c33&quot;&gt;[email&amp;#160;protected]&lt;/a&gt;&lt;script cf-hash='f9e31' type=&quot;text/javascript&quot;&gt;\n/* &lt;![CDATA[ */!function(){try{var t=&quot;currentScript&quot;in document?document.currentScript:function(){for(var t=document.getElementsByTagName(&quot;script&quot;),e=t.length;e--;)if(t[e].getAttribute(&quot;cf-hash&quot;))return t[e]}();if(t&amp;&amp;t.previousSibling){var e,r,n,i,c=t.previousSibling,a=c.getAttribute(&quot;data-cfemail&quot;);if(a){for(e=&quot;&quot;,r=parseInt(a.substr(0,2),16),n=2;a.length-n;n+=2)i=parseInt(a.substr(n,2),16)^r,e+=String.fromCharCode(i);e=document.createTextNode(e),c.parentNode.replaceChild(e,c)}}}catch(u){}}();/* ]]&gt; */&lt;/script&gt;\nFormat settings, CABAC         : No\nFormat settings, ReFrames      : 1 frame\nFormat settings, GOP           : M=1, N=30\nCodec ID                       : avc1\nCodec ID/Info                  : Advanced Video Coding\nDuration                       : 1h 19mn\nBit rate                       : 336 Kbps\nMaximum bit rate               : 872 Kbps\nWidth                          : 480 pixels\nHeight                         : 360 pixels\nDisplay aspect ratio           : 4:3\nFrame rate mode                : Constant\nFrame rate                     : 25.000 fps\nColor space                    : YUV\nChroma subsampling             : 4:2:0\nBit depth                      : 8 bits\nScan type                      : Progressive\nBits/(Pixel*Frame)             : 0.078\nStream size                    : 192 MiB (77%)\n\nAudio\nID                             : 2\nFormat                         : AAC\nFormat/Info                    : Advanced Audio Codec\nFormat profile                 : LC\nCodec ID                       : 40\nDuration                       : 1h 19mn\nBit rate mode                  : Variable\nBit rate                       : 96.0 Kbps\nMaximum bit rate               : 132 Kbps\nChannel(s)                     : 2 channels\nChannel positions              : Front: L R\nSampling rate                  : 44.1 KHz\nCompression mode               : Lossy\nStream size                    : 54.7 MiB (22%)\n\nRipper : SaketSaket\n\nNote : Initial seeding will be very slow...\n\nSeeding 24x7... Extreme Seeding...\n\n\nEnjoy!","torrent":{"xt":"urn:btih:12803af7296264f177b82f375b247f1488be73c6","amp;dn":"%5BMARATHI%5D+Bed+Partner+XViD+MP4+YTubeRip+%28RRG%29","amp;tr":["udp%3A%2F%2Ftracker.openbittorrent.com%3A80","udp%3A%2F%2Fopen.demonii.com%3A1337","udp%3A%2F%2Ftracker.coppersurfer.tk%3A6969","udp%3A%2F%2Fexodus.desync.com%3A6969"],"infoHash":"12803af7296264f177b82f375b247f1488be73c6","infoHashBuffer":{"type":"Buffer","data":[18,128,58,247,41,98,100,241,119,184,47,55,91,36,127,20,136,190,115,198]},"announce":[],"urlList":[]}}